<svg width="334" height="48" viewBox="0 0 334 48" fill="none" xmlns="http://www.w3.org/2000/svg">
<g clip-path="url(#clip0_2_373)">
<path d="M10.4655 3H37.5345C41.6576 3 45 6.46617 45 10.742V37.258C45 41.5338 41.6576 45 37.5345 45H10.4655C6.34238 45 3 41.5338 3 37.258V10.742C3 6.46617 6.34238 3 10.4655 3Z" fill="#1E3101"/>
<path d="M15.9919 32.7301C15.021 32.7395 14.0516 32.6454 13.0991 32.4494C12.3469 32.3 11.6145 32.057 10.9189 31.7253C10.7528 31.6199 10.6631 31.4223 10.6909 31.2228V27.7057C10.6838 27.6419 10.7111 27.5797 10.7621 27.5431C10.8221 27.514 10.8923 27.5198 10.9474 27.5579C11.7353 28.0662 12.5895 28.4543 13.4839 28.7106C14.337 28.961 15.2194 29.0901 16.1059 29.0948C17.1889 29.0948 17.9633 28.9225 18.4286 28.5776C18.8576 28.3007 19.1209 27.8161 19.1269 27.2919C19.1314 26.9754 19.0526 26.6639 18.8989 26.3905C18.693 26.0704 18.4204 25.8029 18.1009 25.6073C17.6036 25.2911 17.0786 25.0239 16.5334 24.8093L15.1084 24.1886C14.1274 23.7853 13.2101 23.2327 12.3866 22.5483C11.7904 22.0509 11.3246 21.4053 11.0329 20.6715C10.7824 19.982 10.6568 19.2505 10.6624 18.5139C10.6249 16.3774 11.8268 14.4263 13.7119 13.5634C14.8958 13.0236 16.1813 12.7661 17.4739 12.8097C18.327 12.8054 19.1794 12.8649 20.0246 12.987C20.6816 13.0652 21.3221 13.255 21.9199 13.5486C22.0523 13.626 22.1299 13.7757 22.1194 13.9328C22.1194 13.9643 22.1194 13.9962 22.1194 14.0277C22.1194 14.1133 22.1194 14.1988 22.1194 14.2848C22.1194 14.4108 22.1194 14.5368 22.1194 14.6628C22.1194 14.8156 22.1194 14.9684 22.1194 15.1213C22.1194 15.2873 22.1194 15.4534 22.1194 15.6194C22.1194 15.7851 22.1194 15.9504 22.1194 16.116C22.1194 16.2677 22.1194 16.419 22.1194 16.5706C22.1194 16.6943 22.1194 16.8184 22.1194 16.942C22.1194 17.0245 22.1194 17.1069 22.1194 17.1894C22.1194 17.2321 22.1224 17.2765 22.1123 17.3185C22.0995 17.3718 22.0624 17.4134 22.0103 17.4262C21.9416 17.4429 21.8888 17.4044 21.8306 17.3741C21.7654 17.3399 21.7005 17.3064 21.6345 17.2738C21.5029 17.2088 21.3698 17.1474 21.2351 17.0902C20.9659 16.9755 20.6903 16.8763 20.4105 16.7927C20.2313 16.7394 20.0501 16.6924 19.8675 16.6523C19.0909 16.473 18.2974 16.384 17.502 16.3863C17.0325 16.3774 16.5638 16.4271 16.1055 16.5341C15.7811 16.6099 15.4691 16.7344 15.1793 16.9035C14.9561 17.0358 14.7735 17.2302 14.652 17.4651C14.5414 17.6786 14.4825 17.917 14.481 18.1596C14.4769 18.4618 14.5669 18.757 14.7375 19.002C14.9723 19.3049 15.2629 19.5561 15.5925 19.7409C16.1288 20.0605 16.6808 20.3514 17.2455 20.6128L18.3 21.0265C19.3538 21.4407 20.3426 22.0131 21.2355 22.726C21.8745 23.242 22.383 23.9117 22.7175 24.6766C23.0059 25.3926 23.1514 26.1618 23.1454 26.9376C23.166 28.03 22.8518 29.1014 22.2473 29.9966C21.6158 30.9008 20.7514 31.6024 19.7535 32.0212C18.5588 32.5194 17.2789 32.7605 15.9919 32.7301Z" fill="#99E83F"/>
<path d="M28.617 28.7993L32.664 29.0062C33.7871 29.0132 34.899 29.2388 35.9415 29.6712C36.6652 29.9745 37.2817 30.5007 37.7085 31.1785C38.0741 31.8175 38.2616 32.549 38.25 33.2918C38.2492 34.299 37.923 35.277 37.3237 36.07C36.645 36.9652 35.7502 37.6586 34.7302 38.0798C33.4665 38.6017 32.1142 38.8529 30.7545 38.8187C29.421 38.8642 28.0927 38.6277 26.85 38.1241C25.9563 37.7667 25.1767 37.1577 24.5985 36.3655C24.1575 35.7593 23.9085 35.0262 23.886 34.2671C23.8957 33.9113 23.9835 33.5628 24.1428 33.2474C24.3626 32.8091 24.6356 32.402 24.9551 32.0357C25.4066 31.5095 25.8922 31.0156 26.4086 30.5579C27.1136 29.931 27.8508 29.3438 28.617 28.7993ZM30.4413 27.3807C29.7266 27.3818 29.0141 27.2974 28.3181 27.1294C27.6405 26.9692 26.9947 26.6892 26.4086 26.3019C25.8326 25.9219 25.3575 25.3989 25.026 24.7798C24.6678 24.0802 24.4908 23.2958 24.513 22.504C24.5051 21.6068 24.7425 20.7256 25.197 19.9622C25.6781 19.1704 26.3643 18.5354 27.1777 18.1298C28.1613 17.6499 29.2402 17.4169 30.327 17.45C30.84 17.45 31.3387 17.4745 31.8232 17.5239C32.3077 17.5733 32.7116 17.6277 33.0345 17.6864C33.1672 17.7063 33.291 17.721 33.405 17.7308C33.519 17.7409 33.6232 17.7455 33.7185 17.7455H37.623C37.737 17.7455 37.794 17.8148 37.794 17.9524V20.7011C37.8168 20.7917 37.764 20.8847 37.6766 20.908C37.6496 20.9154 37.6215 20.9154 37.5945 20.908C37.4043 20.908 37.1051 20.8932 36.6967 20.8637C36.288 20.8341 35.9317 20.7995 35.628 20.7602C35.7543 21.0095 35.8545 21.272 35.9272 21.5434C36.0195 21.9051 36.0626 22.278 36.0555 22.6518C36.0907 23.5913 35.8361 24.518 35.3287 25.297C34.8228 26.0137 34.1238 26.5585 33.3195 26.8634C32.3996 27.2204 31.4235 27.3958 30.4413 27.3807ZM30.042 29.1835L27.021 31.1342C26.6576 30.748 26.3718 30.2911 26.1802 29.7894C25.9991 29.3049 25.9166 28.7865 25.938 28.2673C25.9548 27.8442 26.0317 27.4261 26.166 27.026C26.295 26.6394 26.4877 26.2793 26.7363 25.962L29.5575 27.1442C29.4948 27.2838 29.4562 27.4339 29.4435 27.5875C29.4243 27.7645 29.4243 27.943 29.4435 28.1195C29.4423 28.314 29.4971 28.5042 29.6002 28.6663C29.7251 28.858 29.8736 29.0319 30.042 29.1835ZM34.6308 33.9124C34.656 33.5756 34.5168 33.2486 34.2603 33.0405C33.9513 32.8274 33.6011 32.6863 33.2343 32.6268C32.7547 32.533 32.2687 32.479 31.7808 32.4642L28.6458 32.3164C28.3278 32.5276 28.0597 32.8103 27.8621 33.144C27.702 33.3703 27.5992 33.6344 27.5628 33.9124C27.5793 34.2476 27.7166 34.5642 27.9476 34.7991C28.2765 35.1401 28.6833 35.3894 29.1303 35.5232C29.7386 35.7223 30.3738 35.8172 31.0113 35.804C31.7137 35.8246 32.4153 35.7351 33.0918 35.538C33.5328 35.4159 33.9356 35.1767 34.2603 34.8434C34.4932 34.5934 34.6256 34.2605 34.6308 33.9124ZM32.3508 22.504C32.3565 22.1373 32.2833 21.7737 32.1371 21.44C31.9961 21.1265 31.7677 20.864 31.4816 20.6863C31.1385 20.4864 30.7488 20.3892 30.3558 20.4055C29.8177 20.3721 29.289 20.5638 28.8881 20.9375C28.5146 21.3521 28.3237 21.9086 28.3608 22.4744C28.3548 22.9901 28.5326 23.4898 28.8596 23.8783C29.244 24.3049 29.7941 24.5278 30.3558 24.4842C30.8891 24.5122 31.4115 24.3213 31.8093 23.9522C32.1802 23.5715 32.3771 23.0449 32.3508 22.504Z" fill="#99E83F"/>
</g>
<path d="M61 18.2C61 12.8795 61 10.2193 62.0354 8.18709C62.9462 6.39955 64.3996 4.94624 66.1871 4.03544C68.2193 3 70.8795 3 76.2 3H87.8C93.1205 3 95.7807 3 97.8129 4.03544C99.6004 4.94624 101.054 6.39955 101.965 8.18709C103 10.2193 103 12.8795 103 18.2V29.8C103 35.1205 103 37.7807 101.965 39.8129C101.054 41.6004 99.6004 43.0538 97.8129 43.9646C95.7807 45 93.1205 45 87.8 45H76.2C70.8795 45 68.2193 45 66.1871 43.9646C64.3996 43.0538 62.9462 41.6004 62.0354 39.8129C61 37.7807 61 35.1205 61 29.8V18.2Z" fill="#001E36"/>
<path d="M83.057 33.9301H71.9561C71.7682 33.9301 71.6742 33.8242 71.6743 33.6123V15.2624C71.6535 15.1131 71.7824 14.9809 71.9279 15.0023H75.3653C75.4785 14.9859 75.5782 15.0903 75.5625 15.2046V30.2891H83.6487C83.8178 30.2891 83.8835 30.3758 83.846 30.5491L83.3388 33.6701C83.3344 33.8272 83.2055 33.9285 83.057 33.9301Z" fill="#31A8FF"/>
<path d="M85.8772 19.5479H88.9484C89.1177 19.5494 89.2698 19.6694 89.3146 19.8369C89.5397 20.3494 89.5674 20.9675 89.5682 21.5208C90.0949 20.8919 90.73 20.3678 91.4418 19.9749C92.2052 19.5318 93.0707 19.3072 93.9478 19.3247C94.0933 19.3033 94.2222 19.4355 94.2014 19.5847V23.0813C94.2014 23.2163 94.1071 23.2836 93.9197 23.2836C92.6198 23.1916 90.5959 23.5066 89.6514 24.5551V33.6468C89.6514 33.8202 89.5763 33.9069 89.426 33.9068H86.1309C85.969 33.9307 85.8262 33.7813 85.849 33.6179V23.746C85.849 22.4231 85.877 21.0605 85.68 19.7502C85.6497 19.6296 85.7623 19.5175 85.8772 19.5479Z" fill="#31A8FF"/>
<path d="M61 18.2C61 12.8795 61 10.2193 62.0354 8.18709C62.9462 6.39955 64.3996 4.94624 66.1871 4.03544C68.2193 3 70.8795 3 76.2 3H87.8C93.1205 3 95.7807 3 97.8129 4.03544C99.6004 4.94624 101.054 6.39955 101.965 8.18709C103 10.2193 103 12.8795 103 18.2V29.8C103 35.1205 103 37.7807 101.965 39.8129C101.054 41.6004 99.6004 43.0538 97.8129 43.9646C95.7807 45 93.1205 45 87.8 45H76.2C70.8795 45 68.2193 45 66.1871 43.9646C64.3996 43.0538 62.9462 41.6004 62.0354 39.8129C61 37.7807 61 35.1205 61 29.8V18.2Z" fill="#330000"/>
<path d="M81.3526 29.3944H74.8442L73.52 33.6134C73.4832 33.7702 73.3389 33.8812 73.1819 33.8735H69.8854C69.6974 33.8735 69.6317 33.7676 69.6882 33.5556L75.3231 16.9107C75.3795 16.7374 75.4359 16.5399 75.4922 16.3183C75.5659 15.9328 75.6037 15.5409 75.6049 15.148C75.5888 15.0319 75.6908 14.9294 75.8022 14.9457H80.2819C80.4132 14.9457 80.4883 14.9939 80.5073 15.0902L86.9031 33.5845C86.9594 33.7773 86.9031 33.8737 86.734 33.8735H83.0712C82.9428 33.8881 82.8201 33.8 82.7895 33.6712L81.3526 29.3944ZM75.8585 25.7533H80.3101C79.5787 23.2541 78.7533 20.7876 78.0843 18.2689C77.3625 20.7919 76.575 23.3047 75.8585 25.7533Z" fill="#FF9A00"/>
<path d="M90.7064 18.0087C90.419 18.0206 90.1324 17.9701 89.8654 17.8605C89.5984 17.751 89.3569 17.5848 89.1568 17.373C88.9572 17.152 88.8021 16.8927 88.7006 16.61C88.599 16.3273 88.553 16.0268 88.565 15.7258C88.5548 15.4278 88.6059 15.1309 88.7152 14.8546C88.8244 14.5782 88.9893 14.3286 89.199 14.122C89.4066 13.9176 89.6518 13.7574 89.9202 13.6508C90.1886 13.5441 90.4749 13.4931 90.7627 13.5007C91.4389 13.5007 91.9696 13.7078 92.3546 14.122C92.549 14.3373 92.7 14.5897 92.7991 14.8649C92.8982 15.1401 92.9434 15.4327 92.9322 15.7258C92.9439 16.028 92.8964 16.3295 92.7923 16.6125C92.6883 16.8954 92.5298 17.1541 92.3264 17.373C92.1138 17.5879 91.8601 17.7554 91.5813 17.8648C91.3025 17.9742 91.0046 18.0232 90.7064 18.0087ZM88.7622 33.5844V19.7714C88.7622 19.5981 88.8371 19.5114 88.9877 19.5114H92.4532C92.6033 19.5114 92.6785 19.5981 92.6786 19.7714V33.5844C92.6786 33.7772 92.6035 33.8736 92.4532 33.8734H89.0158C88.8468 33.8734 88.7623 33.7771 88.7622 33.5844Z" fill="#FF9A00"/>
<path d="M61 18.2C61 12.8795 61 10.2193 62.0354 8.18709C62.9462 6.39955 64.3996 4.94624 66.1871 4.03544C68.2193 3 70.8795 3 76.2 3H87.8C93.1205 3 95.7807 3 97.8129 4.03544C99.6004 4.94624 101.054 6.39955 101.965 8.18709C103 10.2193 103 12.8795 103 18.2V29.8C103 35.1205 103 37.7807 101.965 39.8129C101.054 41.6004 99.6004 43.0538 97.8129 43.9646C95.7807 45 93.1205 45 87.8 45H76.2C70.8795 45 68.2193 45 66.1871 43.9646C64.3996 43.0538 62.9462 41.6004 62.0354 39.8129C61 37.7807 61 35.1205 61 29.8V18.2Z" fill="#00005B"/>
<path d="M78.684 29.3458H72.1756L70.8514 33.5729C70.8146 33.7296 70.6703 33.8406 70.5133 33.8329H67.2168C67.0288 33.8329 66.9631 33.727 67.0196 33.5151L72.6545 16.9389C72.7109 16.7656 72.7672 16.5961 72.8236 16.3744C72.8973 15.9888 72.9351 15.597 72.9363 15.2041C72.9202 15.088 73.0204 14.9852 73.1336 15.0018H77.6133C77.7446 15.0018 77.8197 15.0499 77.8387 15.1463L84.2345 33.544C84.2908 33.7368 84.2345 33.8331 84.0654 33.8329H80.4026C80.2742 33.8475 80.1515 33.7595 80.1209 33.6307L78.684 29.3458ZM73.1899 25.7816H77.6415C76.9101 23.2823 76.0847 20.8159 75.4157 18.2971C74.6576 20.9099 73.9576 23.333 73.1899 25.7816Z" fill="#9999FF"/>
<path d="M88.9912 27.7135C89.2502 29.8599 91.0526 30.8832 93.0484 30.8396C94.1738 30.8175 95.3766 30.6428 96.4281 30.2172C96.5219 30.1405 96.569 30.1883 96.569 30.3617V33.107C96.5779 33.2498 96.5182 33.3774 96.3999 33.4537C95.093 34.0475 93.5925 34.2265 92.175 34.2038C87.9483 34.2038 85.0455 31.2257 85.0467 26.8927C85.0357 22.7866 87.6995 19.3225 91.8369 19.3225C95.344 19.2316 97.772 22.0396 97.7818 25.5346C97.7818 26.1712 97.7463 26.8099 97.6691 27.4418C97.6542 27.572 97.5433 27.673 97.4155 27.673C94.6145 27.673 91.7999 27.7135 88.9912 27.7135ZM88.9912 25.0811C90.5522 25.0811 92.1223 25.1362 93.6823 25.0666C93.9168 25.0426 94.0909 24.9982 94.0909 24.7543C94.0584 23.4586 92.9649 22.393 91.6961 22.4425C90.1629 22.3475 89.1818 23.6416 88.9912 25.0811Z" fill="#9999FF"/>
<path d="M61 18.2C61 12.8795 61 10.2193 62.0354 8.18709C62.9462 6.39955 64.3996 4.94624 66.1871 4.03544C68.2193 3 70.8795 3 76.2 3H87.8C93.1205 3 95.7807 3 97.8129 4.03544C99.6004 4.94624 101.054 6.39955 101.965 8.18709C103 10.2193 103 12.8795 103 18.2V29.8C103 35.1205 103 37.7807 101.965 39.8129C101.054 41.6004 99.6004 43.0538 97.8129 43.9646C95.7807 45 93.1205 45 87.8 45H76.2C70.8795 45 68.2193 45 66.1871 43.9646C64.3996 43.0538 62.9462 41.6004 62.0354 39.8129C61 37.7807 61 35.1205 61 29.8V18.2Z" fill="#001E36"/>
<path d="M70 33.7744V15.3051C70 15.1795 70.0525 15.1077 70.175 15.1077C71.9834 15.1077 73.7911 15 75.6 15C78.5352 15 81.7135 16.0036 82.8275 19.0744C83.09 19.8282 83.23 20.6 83.23 21.4077C83.23 22.9513 82.88 24.2256 82.18 25.2308C80.2246 28.0385 76.8355 27.9949 73.7975 27.9949V33.7564C73.8213 33.927 73.6759 34.0077 73.535 34.0077H70.21C70.07 34.0077 70 33.9359 70 33.7744ZM73.815 18.5718V24.6026C75.0196 24.6908 76.2801 24.7004 77.4375 24.3154C78.7152 23.9468 79.415 22.8407 79.415 21.5154C79.4505 20.386 78.8351 19.3024 77.7875 18.8949C76.644 18.4194 75.0493 18.3909 73.815 18.5718Z" fill="#31A8FF"/>
<path d="M94.145 23.4111C93.6155 23.132 93.0515 22.9279 92.4686 22.8042C91.7194 22.6279 88.7647 22.0106 88.7636 23.5555C88.7898 24.4181 90.159 24.8407 90.7639 25.0871C92.8877 25.8162 95.291 27.1196 95.2438 29.7396C95.3087 33.0012 92.1486 34.3051 89.4397 34.3054C88.0295 34.32 86.5604 34.1016 85.2698 33.4962C85.1466 33.431 85.0673 33.2916 85.0726 33.1495V30.0286C85.0587 29.9034 85.193 29.7941 85.298 29.8841C86.5625 30.6488 88.0614 31.0201 89.5242 31.04C90.17 31.04 91.4499 30.9774 91.4402 30.0286C91.4402 29.118 89.9091 28.6994 89.2988 28.4681C88.4142 28.1523 87.5753 27.7148 86.8053 27.1677C85.7293 26.4002 85.0542 25.1695 85.0726 23.8156C85.0663 20.7445 87.9752 19.3661 90.5949 19.3654C91.8196 19.3553 93.1347 19.446 94.2748 19.9434C94.4387 19.9916 94.4727 20.1643 94.472 20.319V23.2377C94.4824 23.4188 94.2812 23.4805 94.145 23.4111Z" fill="#31A8FF"/>
<path d="M119 18.2C119 12.8795 119 10.2193 120.035 8.18709C120.946 6.39955 122.4 4.94624 124.187 4.03544C126.219 3 128.88 3 134.2 3H145.8C151.12 3 153.781 3 155.813 4.03544C157.6 4.94624 159.054 6.39955 159.965 8.18709C161 10.2193 161 12.8795 161 18.2V29.8C161 35.1205 161 37.7807 159.965 39.8129C159.054 41.6004 157.6 43.0538 155.813 43.9646C153.781 45 151.12 45 145.8 45H134.2C128.88 45 126.219 45 124.187 43.9646C122.4 43.0538 120.946 41.6004 120.035 39.8129C119 37.7807 119 35.1205 119 29.8V18.2Z" fill="#001E36"/>
<path d="M141.057 33.9301H129.956C129.768 33.9301 129.674 33.8242 129.674 33.6123V15.2624C129.654 15.1131 129.782 14.9809 129.928 15.0023H133.365C133.479 14.9859 133.578 15.0903 133.563 15.2046V30.2891H141.649C141.818 30.2891 141.884 30.3758 141.846 30.5491L141.339 33.6701C141.334 33.8272 141.205 33.9285 141.057 33.9301Z" fill="#31A8FF"/>
<path d="M143.877 19.5479H146.948C147.118 19.5494 147.27 19.6694 147.315 19.8369C147.54 20.3494 147.567 20.9675 147.568 21.5208C148.095 20.8919 148.73 20.3678 149.442 19.9749C150.205 19.5318 151.071 19.3072 151.948 19.3247C152.093 19.3033 152.222 19.4355 152.201 19.5847V23.0813C152.201 23.2163 152.107 23.2836 151.92 23.2836C150.62 23.1916 148.596 23.5066 147.651 24.5551V33.6468C147.651 33.8202 147.576 33.9069 147.426 33.9068H144.131C143.969 33.9307 143.826 33.7813 143.849 33.6179V23.746C143.849 22.4231 143.877 21.0605 143.68 19.7502C143.65 19.6296 143.762 19.5175 143.877 19.5479Z" fill="#31A8FF"/>
<path d="M177 18.2C177 12.8795 177 10.2193 178.035 8.18709C178.946 6.39955 180.4 4.94624 182.187 4.03544C184.219 3 186.88 3 192.2 3H203.8C209.12 3 211.781 3 213.813 4.03544C215.6 4.94624 217.054 6.39955 217.965 8.18709C219 10.2193 219 12.8795 219 18.2V29.8C219 35.1205 219 37.7807 217.965 39.8129C217.054 41.6004 215.6 43.0538 213.813 43.9646C211.781 45 209.12 45 203.8 45H192.2C186.88 45 184.219 45 182.187 43.9646C180.4 43.0538 178.946 41.6004 178.035 39.8129C177 37.7807 177 35.1205 177 29.8V18.2Z" fill="#330000"/>
<path d="M197.353 29.3944H190.844L189.52 33.6134C189.483 33.7702 189.339 33.8812 189.182 33.8735H185.885C185.697 33.8735 185.632 33.7676 185.688 33.5556L191.323 16.9107C191.38 16.7374 191.436 16.5399 191.492 16.3183C191.566 15.9328 191.604 15.5409 191.605 15.148C191.589 15.0319 191.691 14.9294 191.802 14.9457H196.282C196.413 14.9457 196.488 14.9939 196.507 15.0902L202.903 33.5845C202.959 33.7773 202.903 33.8737 202.734 33.8735H199.071C198.943 33.8881 198.82 33.8 198.79 33.6712L197.353 29.3944ZM191.858 25.7533H196.31C195.579 23.2541 194.753 20.7876 194.084 18.2689C193.363 20.7919 192.575 23.3047 191.858 25.7533Z" fill="#FF9A00"/>
<path d="M206.706 18.0087C206.419 18.0206 206.132 17.9701 205.865 17.8605C205.598 17.751 205.357 17.5848 205.157 17.373C204.957 17.152 204.802 16.8927 204.701 16.61C204.599 16.3273 204.553 16.0268 204.565 15.7258C204.555 15.4278 204.606 15.1309 204.715 14.8546C204.824 14.5782 204.989 14.3286 205.199 14.122C205.407 13.9176 205.652 13.7574 205.92 13.6508C206.189 13.5441 206.475 13.4931 206.763 13.5007C207.439 13.5007 207.97 13.7078 208.355 14.122C208.549 14.3373 208.7 14.5897 208.799 14.8649C208.898 15.1401 208.943 15.4327 208.932 15.7258C208.944 16.028 208.896 16.3295 208.792 16.6125C208.688 16.8954 208.53 17.1541 208.326 17.373C208.114 17.5879 207.86 17.7554 207.581 17.8648C207.302 17.9742 207.005 18.0232 206.706 18.0087ZM204.762 33.5844V19.7714C204.762 19.5981 204.837 19.5114 204.988 19.5114H208.453C208.603 19.5114 208.678 19.5981 208.679 19.7714V33.5844C208.679 33.7772 208.603 33.8736 208.453 33.8734H205.016C204.847 33.8734 204.762 33.7771 204.762 33.5844Z" fill="#FF9A00"/>
<path d="M235 18.2C235 12.8795 235 10.2193 236.035 8.18709C236.946 6.39955 238.4 4.94624 240.187 4.03544C242.219 3 244.88 3 250.2 3H261.8C267.12 3 269.781 3 271.813 4.03544C273.6 4.94624 275.054 6.39955 275.965 8.18709C277 10.2193 277 12.8795 277 18.2V29.8C277 35.1205 277 37.7807 275.965 39.8129C275.054 41.6004 273.6 43.0538 271.813 43.9646C269.781 45 267.12 45 261.8 45H250.2C244.88 45 242.219 45 240.187 43.9646C238.4 43.0538 236.946 41.6004 236.035 39.8129C235 37.7807 235 35.1205 235 29.8V18.2Z" fill="#00005B"/>
<path d="M252.684 29.3458H246.176L244.851 33.5729C244.815 33.7296 244.67 33.8406 244.513 33.8329H241.217C241.029 33.8329 240.963 33.727 241.02 33.5151L246.655 16.9389C246.711 16.7656 246.767 16.5961 246.824 16.3744C246.897 15.9888 246.935 15.597 246.936 15.2041C246.92 15.088 247.02 14.9852 247.134 15.0018H251.613C251.745 15.0018 251.82 15.0499 251.839 15.1463L258.235 33.544C258.291 33.7368 258.234 33.8331 258.065 33.8329H254.403C254.274 33.8475 254.152 33.7595 254.121 33.6307L252.684 29.3458ZM247.19 25.7816H251.642C250.91 23.2823 250.085 20.8159 249.416 18.2971C248.658 20.9099 247.958 23.333 247.19 25.7816Z" fill="#9999FF"/>
<path d="M262.991 27.7135C263.25 29.8599 265.053 30.8832 267.048 30.8396C268.174 30.8175 269.377 30.6428 270.428 30.2172C270.522 30.1405 270.569 30.1883 270.569 30.3617V33.107C270.578 33.2498 270.518 33.3774 270.4 33.4537C269.093 34.0475 267.593 34.2265 266.175 34.2038C261.948 34.2038 259.046 31.2257 259.047 26.8927C259.036 22.7866 261.7 19.3225 265.837 19.3225C269.344 19.2316 271.772 22.0396 271.782 25.5346C271.782 26.1712 271.746 26.8099 271.669 27.4418C271.654 27.572 271.543 27.673 271.415 27.673C268.615 27.673 265.8 27.7135 262.991 27.7135ZM262.991 25.0811C264.552 25.0811 266.122 25.1362 267.682 25.0666C267.917 25.0426 268.091 24.9982 268.091 24.7543C268.058 23.4586 266.965 22.393 265.696 22.4425C264.163 22.3475 263.182 23.6416 262.991 25.0811Z" fill="#9999FF"/>
<g clip-path="url(#clip1_2_373)">
<path d="M299.437 2.99998H326.562C327.539 2.99904 328.507 3.1957 329.41 3.57872C330.313 3.96174 331.133 4.5236 331.824 5.23213C332.514 5.94066 333.062 6.78196 333.436 7.70788C333.809 8.63381 334.001 9.62617 334 10.6282V37.3718C334.001 38.3738 333.809 39.3662 333.436 40.2921C333.062 41.218 332.514 42.0593 331.824 42.7678C331.133 43.4764 330.313 44.0382 329.41 44.4212C328.507 44.8043 327.539 45.0009 326.562 45H299.437C298.461 45.0009 297.493 44.8043 296.59 44.4212C295.687 44.0382 294.867 43.4764 294.176 42.7678C293.486 42.0593 292.938 41.218 292.564 40.2921C292.191 39.3662 291.999 38.3738 292 37.3718V10.6282C291.999 9.62617 292.191 8.63381 292.564 7.70788C292.938 6.78196 293.486 5.94066 294.176 5.23213C294.867 4.5236 295.687 3.96174 296.59 3.57872C297.493 3.1957 298.461 2.99904 299.437 2.99998V2.99998Z" fill="#000B1D"/>
<path d="M308.625 37.4615C311.041 37.4615 313 35.4526 313 32.9744V28.4872H308.625C306.209 28.4872 304.25 30.4962 304.25 32.9744C304.25 35.4526 306.209 37.4615 308.625 37.4615Z" fill="#0ACF83"/>
<path d="M304.25 24C304.25 21.5218 306.209 19.5128 308.625 19.5128H313V28.4872H308.625C306.209 28.4872 304.25 26.4782 304.25 24Z" fill="#A259FF"/>
<path d="M304.25 15.0256C304.25 12.5474 306.209 10.5385 308.625 10.5385H313V19.5128H308.625C306.209 19.5128 304.25 17.5038 304.25 15.0256Z" fill="#F24E1E"/>
<path d="M313 10.5385H317.375C319.791 10.5385 321.75 12.5474 321.75 15.0256C321.75 17.5038 319.791 19.5128 317.375 19.5128H313V10.5385Z" fill="#FF7262"/>
<path d="M321.75 24C321.75 26.4782 319.791 28.4872 317.375 28.4872C314.959 28.4872 313 26.4782 313 24C313 21.5218 314.959 19.5128 317.375 19.5128C319.791 19.5128 321.75 21.5218 321.75 24Z" fill="#1ABCFE"/>
</g>
<defs>
<clipPath id="clip0_2_373">
<rect width="42" height="42" fill="white" transform="translate(3 3)"/>
</clipPath>
<clipPath id="clip1_2_373">
<rect width="42" height="42" fill="white" transform="translate(292 3)"/>
</clipPath>
</defs>
</svg>
